# xmcd
# 
# Track frame offsets:
#     150
#     16357
#     29423
#     45901
#     58603
#     75004
#     93269
#     106842
#     122817
#     134912
#     150931
#     165372
#     182484
#     196624
#     211750
#     232119
# 
# Disc length: 3351
# 
# Revision: 0
# Processed by: cddbd v1.5.2PL0 Copyright (c) Steve Scherf et al.
# Submitted via: fre:ac v1.0.17
# 
DISCID=b70d1510
DTITLE=Windfall - Floyd Tim
DYEAR=0
DGENRE=Country
TTITLE0=Across the Great Divide
TTITLE1=On a Roll
TTITLE2=Love It On You
TTITLE3=Sweet Thing
TTITLE4=Paradise
TTITLE5=Gulf Coast Highway
TTITLE6=Floyd Time
TTITLE7=Someday Soon
TTITLE8=Dark Hollow
TTITLE9=You Dont Know Me
TTITLE10=Thinking of Doves
TTITLE11=A Thousand Voices
TTITLE12=Gone
TTITLE13=Summer Fly
TTITLE14=The Enjd of Time
TTITLE15=xxxxx
EXTD=
EXTT0=
EXTT1=
EXTT2=
EXTT3=
EXTT4=
EXTT5=
EXTT6=
EXTT7=
EXTT8=
EXTT9=
EXTT10=
EXTT11=
EXTT12=
EXTT13=
EXTT14=
EXTT15=
PLAYORDER=
